<svg width="78" height="78" viewBox="0 0 78 78" fill="none" xmlns="http://www.w3.org/2000/svg">
<g clip-path="url(#clip0_243_2)">
<path d="M49.435 57.7396L28.6017 57.7594C24.0184 57.7636 20.2652 54.0177 20.26 49.4344L20.2402 28.6011C20.2361 24.0178 23.9819 20.2646 28.5652 20.2594L49.3986 20.2396C53.9819 20.2355 57.735 23.9813 57.7402 28.5646L57.76 49.398C57.7652 53.9823 54.0184 57.7355 49.435 57.7396Z" fill="url(#paint0_radial_243_2)"/>
<path d="M49.435 57.7396L28.6017 57.7594C24.0184 57.7636 20.2652 54.0177 20.26 49.4344L20.2402 28.6011C20.2361 24.0178 23.9819 20.2646 28.5652 20.2594L49.3986 20.2396C53.9819 20.2355 57.735 23.9813 57.7402 28.5646L57.76 49.398C57.7652 53.9823 54.0184 57.7355 49.435 57.7396Z" fill="url(#paint1_radial_243_2)"/>
<path d="M39.0007 46.2917C34.9809 46.2917 31.709 43.0209 31.709 39C31.709 34.9792 34.9809 31.7084 39.0007 31.7084C43.0204 31.7084 46.2923 34.9792 46.2923 39C46.2923 43.0209 43.0204 46.2917 39.0007 46.2917ZM39.0007 33.7917C36.1288 33.7917 33.7923 36.1282 33.7923 39C33.7923 41.8719 36.1288 44.2084 39.0007 44.2084C41.8725 44.2084 44.209 41.8719 44.209 39C44.209 36.1282 41.8725 33.7917 39.0007 33.7917Z" fill="white"/>
<path d="M46.8125 32.75C47.6754 32.75 48.375 32.0504 48.375 31.1875C48.375 30.3246 47.6754 29.625 46.8125 29.625C45.9496 29.625 45.25 30.3246 45.25 31.1875C45.25 32.0504 45.9496 32.75 46.8125 32.75Z" fill="white"/>
<path d="M45.2507 52.5417H32.7507C28.7309 52.5417 25.459 49.2709 25.459 45.25V32.75C25.459 28.7292 28.7309 25.4584 32.7507 25.4584H45.2507C49.2704 25.4584 52.5423 28.7292 52.5423 32.75V45.25C52.5423 49.2709 49.2704 52.5417 45.2507 52.5417ZM32.7507 27.5417C29.8788 27.5417 27.5423 29.8782 27.5423 32.75V45.25C27.5423 48.1219 29.8788 50.4584 32.7507 50.4584H45.2507C48.1225 50.4584 50.459 48.1219 50.459 45.25V32.75C50.459 29.8782 48.1225 27.5417 45.2507 27.5417H32.7507Z" fill="white"/>
<circle opacity="0.5" cx="39" cy="39" r="38" stroke="#FFCB26" stroke-width="2"/>
</g>
<defs>
<radialGradient id="paint0_radial_243_2" cx="0" cy="0" r="1" gradientUnits="userSpaceOnUse" gradientTransform="translate(34.1884 57.7866) scale(46.7697 46.7697)">
<stop stop-color="#FFDD55"/>
<stop offset="0.328" stop-color="#FF543F"/>
<stop offset="0.3484" stop-color="#FC5245"/>
<stop offset="0.5039" stop-color="#E64771"/>
<stop offset="0.6433" stop-color="#D53E91"/>
<stop offset="0.7606" stop-color="#CC39A4"/>
<stop offset="0.8414" stop-color="#C837AB"/>
</radialGradient>
<radialGradient id="paint1_radial_243_2" cx="0" cy="0" r="1" gradientUnits="userSpaceOnUse" gradientTransform="translate(26.2776 19.7713) scale(31.0556 20.6924)">
<stop stop-color="#4168C9"/>
<stop offset="0.9988" stop-color="#4168C9" stop-opacity="0"/>
</radialGradient>
<clipPath id="clip0_243_2">
<rect width="78" height="78" fill="white"/>
</clipPath>
</defs>
</svg>
