<svg width="78" height="78" viewBox="0 0 78 78" fill="none" xmlns="http://www.w3.org/2000/svg">
<g clip-path="url(#clip0_243_3)">
<path d="M57.7492 26.9469C56.3711 27.5573 54.8888 27.9646 53.3253 28.1573C54.9148 27.2135 56.1378 25.7083 56.7117 23.9302C55.2242 24.8021 53.5763 25.4427 51.8232 25.7802C50.4232 24.2958 48.4263 23.375 46.2138 23.375C41.9638 23.375 38.519 26.7896 38.519 31C38.519 31.5958 38.5888 32.176 38.7201 32.7396C32.3263 32.4188 26.6555 29.3792 22.8617 24.7667C22.1951 25.8938 21.8201 27.2135 21.8201 28.6063C21.8201 31.2531 23.1753 33.5833 25.2419 34.9563C23.9805 34.9177 22.793 34.5667 21.7534 34.0042C21.7534 34.0271 21.7534 34.0615 21.7534 34.0938C21.7534 37.7927 24.4065 40.8729 27.9232 41.574C27.2805 41.75 26.6013 41.8479 25.9013 41.8479C25.4044 41.8479 24.9201 41.7917 24.4513 41.7073C25.4305 44.7302 28.2711 46.9396 31.6367 47.0052C29.0034 49.0469 25.6867 50.2698 22.0805 50.2698C21.4576 50.2698 20.8482 50.2344 20.2461 50.1615C23.6534 52.3188 27.6992 53.5833 32.0419 53.5833C46.193 53.5833 53.9346 41.9625 53.9346 31.8813C53.9346 31.551 53.9242 31.2219 53.9086 30.8969C55.419 29.8302 56.7211 28.4844 57.7492 26.9469Z" fill="#03A9F4"/>
<circle opacity="0.5" cx="39" cy="39" r="38" stroke="#FFCB26" stroke-width="2"/>
</g>
<defs>
<clipPath id="clip0_243_3">
<rect width="78" height="78" fill="white"/>
</clipPath>
</defs>
</svg>
