<svg width="78" height="78" viewBox="0 0 78 78" fill="none" xmlns="http://www.w3.org/2000/svg">
<path d="M49.4344 57.7396L28.601 57.7594C24.0177 57.7636 20.2646 54.0177 20.2594 49.4344L20.2396 28.6011C20.2354 24.0178 23.9812 20.2646 28.5646 20.2594L49.3979 20.2396C53.9812 20.2355 57.7344 23.9813 57.7396 28.5646L57.7594 49.398C57.7646 53.9823 54.0177 57.7355 49.4344 57.7396Z" fill="url(#paint0_radial_162_2)"/>
<path d="M49.4344 57.7396L28.601 57.7594C24.0177 57.7636 20.2646 54.0177 20.2594 49.4344L20.2396 28.6011C20.2354 24.0178 23.9812 20.2646 28.5646 20.2594L49.3979 20.2396C53.9812 20.2355 57.7344 23.9813 57.7396 28.5646L57.7594 49.398C57.7646 53.9823 54.0177 57.7355 49.4344 57.7396Z" fill="url(#paint1_radial_162_2)"/>
<path d="M39 46.2917C34.9802 46.2917 31.7083 43.0209 31.7083 39C31.7083 34.9792 34.9802 31.7084 39 31.7084C43.0198 31.7084 46.2916 34.9792 46.2916 39C46.2916 43.0209 43.0198 46.2917 39 46.2917ZM39 33.7917C36.1281 33.7917 33.7916 36.1282 33.7916 39C33.7916 41.8719 36.1281 44.2084 39 44.2084C41.8719 44.2084 44.2083 41.8719 44.2083 39C44.2083 36.1282 41.8719 33.7917 39 33.7917Z" fill="white"/>
<path d="M46.8125 32.75C47.6754 32.75 48.375 32.0504 48.375 31.1875C48.375 30.3246 47.6754 29.625 46.8125 29.625C45.9496 29.625 45.25 30.3246 45.25 31.1875C45.25 32.0504 45.9496 32.75 46.8125 32.75Z" fill="white"/>
<path d="M45.25 52.5417H32.75C28.7302 52.5417 25.4583 49.2709 25.4583 45.25V32.75C25.4583 28.7292 28.7302 25.4584 32.75 25.4584H45.25C49.2698 25.4584 52.5416 28.7292 52.5416 32.75V45.25C52.5416 49.2709 49.2698 52.5417 45.25 52.5417ZM32.75 27.5417C29.8781 27.5417 27.5416 29.8782 27.5416 32.75V45.25C27.5416 48.1219 29.8781 50.4584 32.75 50.4584H45.25C48.1219 50.4584 50.4583 48.1219 50.4583 45.25V32.75C50.4583 29.8782 48.1219 27.5417 45.25 27.5417H32.75Z" fill="white"/>
<circle opacity="0.5" cx="39" cy="39" r="38" stroke="#FFCB26" stroke-width="2"/>
<defs>
<radialGradient id="paint0_radial_162_2" cx="0" cy="0" r="1" gradientUnits="userSpaceOnUse" gradientTransform="translate(34.1877 57.7866) scale(46.7697 46.7697)">
<stop stop-color="#FFDD55"/>
<stop offset="0.328" stop-color="#FF543F"/>
<stop offset="0.3484" stop-color="#FC5245"/>
<stop offset="0.5039" stop-color="#E64771"/>
<stop offset="0.6433" stop-color="#D53E91"/>
<stop offset="0.7606" stop-color="#CC39A4"/>
<stop offset="0.8414" stop-color="#C837AB"/>
</radialGradient>
<radialGradient id="paint1_radial_162_2" cx="0" cy="0" r="1" gradientUnits="userSpaceOnUse" gradientTransform="translate(26.277 19.7713) scale(31.0556 20.6924)">
<stop stop-color="#4168C9"/>
<stop offset="0.9988" stop-color="#4168C9" stop-opacity="0"/>
</radialGradient>
</defs>
</svg>
