<svg width="78" height="78" viewBox="0 0 78 78" fill="none" xmlns="http://www.w3.org/2000/svg">
<path d="M57.7499 26.9469C56.3718 27.5573 54.8895 27.9646 53.326 28.1573C54.9156 27.2135 56.1385 25.7083 56.7124 23.9302C55.2249 24.8021 53.577 25.4427 51.8239 25.7802C50.4239 24.2958 48.427 23.375 46.2145 23.375C41.9645 23.375 38.5197 26.7896 38.5197 31C38.5197 31.5958 38.5895 32.176 38.7208 32.7396C32.327 32.4188 26.6562 29.3792 22.8625 24.7667C22.1958 25.8938 21.8208 27.2135 21.8208 28.6063C21.8208 31.2531 23.176 33.5833 25.2427 34.9563C23.9812 34.9177 22.7937 34.5667 21.7541 34.0042C21.7541 34.0271 21.7541 34.0615 21.7541 34.0938C21.7541 37.7927 24.4072 40.8729 27.9239 41.574C27.2812 41.75 26.602 41.8479 25.902 41.8479C25.4052 41.8479 24.9208 41.7917 24.452 41.7073C25.4312 44.7302 28.2718 46.9396 31.6375 47.0052C29.0041 49.0469 25.6875 50.2698 22.0812 50.2698C21.4583 50.2698 20.8489 50.2344 20.2468 50.1615C23.6541 52.3188 27.7 53.5833 32.0427 53.5833C46.1937 53.5833 53.9354 41.9625 53.9354 31.8813C53.9354 31.551 53.9249 31.2219 53.9093 30.8969C55.4197 29.8302 56.7218 28.4844 57.7499 26.9469Z" fill="#03A9F4"/>
<circle opacity="0.5" cx="39" cy="39" r="38" stroke="#FFCB26" stroke-width="2"/>
</svg>
