<svg width="230" height="31" viewBox="0 0 230 31" fill="none" xmlns="http://www.w3.org/2000/svg">
<path d="M12.536 24.448C10.744 24.448 9.09067 24.16 7.576 23.584C6.06133 23.008 4.73867 22.1973 3.608 21.152C2.49867 20.0853 1.63467 18.848 1.016 17.44C0.397333 16.032 0.0880001 14.4853 0.0880001 12.8C0.0880001 11.1147 0.397333 9.568 1.016 8.16C1.63467 6.752 2.49867 5.52533 3.608 4.48C4.73867 3.41333 6.06133 2.592 7.576 2.016C9.09067 1.44 10.744 1.152 12.536 1.152C14.3493 1.152 16.0027 1.44 17.496 2.016C19.0107 2.592 20.3227 3.41333 21.432 4.48C22.5413 5.52533 23.4053 6.752 24.024 8.16C24.664 9.568 24.984 11.1147 24.984 12.8C24.984 14.4853 24.664 16.0427 24.024 17.472C23.4053 18.88 22.5413 20.1067 21.432 21.152C20.3227 22.1973 19.0107 23.008 17.496 23.584C16.0027 24.16 14.3493 24.448 12.536 24.448ZM12.536 19.2C13.3893 19.2 14.1787 19.0507 14.904 18.752C15.6507 18.4533 16.2907 18.0267 16.824 17.472C17.3787 16.896 17.8053 16.2133 18.104 15.424C18.424 14.6347 18.584 13.76 18.584 12.8C18.584 11.8187 18.424 10.944 18.104 10.176C17.8053 9.38667 17.3787 8.71467 16.824 8.16C16.2907 7.584 15.6507 7.14667 14.904 6.848C14.1787 6.54933 13.3893 6.4 12.536 6.4C11.6827 6.4 10.8827 6.54933 10.136 6.848C9.41067 7.14667 8.77067 7.584 8.216 8.16C7.68267 8.71467 7.256 9.38667 6.936 10.176C6.63733 10.944 6.488 11.8187 6.488 12.8C6.488 13.76 6.63733 14.6347 6.936 15.424C7.256 16.2133 7.68267 16.896 8.216 17.472C8.77067 18.0267 9.41067 18.4533 10.136 18.752C10.8827 19.0507 11.6827 19.2 12.536 19.2ZM76.1338 24V1.6H87.5898C90.5338 1.6 92.7311 2.144 94.1818 3.232C95.6324 4.29867 96.3578 5.70667 96.3578 7.456C96.3578 8.608 96.0484 9.62133 95.4298 10.496C94.8324 11.3493 93.9791 12.032 92.8698 12.544C91.7818 13.0347 90.4804 13.28 88.9658 13.28L89.6058 11.744C91.1844 11.744 92.5604 11.9893 93.7338 12.48C94.9071 12.9493 95.8138 13.6427 96.4538 14.56C97.1151 15.456 97.4458 16.5547 97.4458 17.856C97.4458 19.7973 96.6564 21.312 95.0778 22.4C93.5204 23.4667 91.2378 24 88.2298 24H76.1338ZM82.4058 19.424H87.7178C88.8058 19.424 89.6271 19.2427 90.1818 18.88C90.7578 18.496 91.0458 17.92 91.0458 17.152C91.0458 16.384 90.7578 15.8187 90.1818 15.456C89.6271 15.072 88.8058 14.88 87.7178 14.88H81.9578V10.496H86.7578C87.8244 10.496 88.6244 10.3147 89.1578 9.952C89.6911 9.58933 89.9578 9.04533 89.9578 8.32C89.9578 7.59467 89.6911 7.06133 89.1578 6.72C88.6244 6.35733 87.8244 6.176 86.7578 6.176H82.4058V19.424ZM159.846 24V1.6H170.438C172.913 1.6 175.089 2.05867 176.966 2.976C178.844 3.89333 180.305 5.184 181.35 6.848C182.417 8.512 182.95 10.496 182.95 12.8C182.95 15.0827 182.417 17.0667 181.35 18.752C180.305 20.416 178.844 21.7067 176.966 22.624C175.089 23.5413 172.913 24 170.438 24H159.846ZM166.182 18.944H170.182C171.462 18.944 172.572 18.7093 173.51 18.24C174.47 17.7493 175.217 17.0453 175.75 16.128C176.284 15.1893 176.55 14.08 176.55 12.8C176.55 11.4987 176.284 10.3893 175.75 9.472C175.217 8.55467 174.47 7.86133 173.51 7.392C172.572 6.90133 171.462 6.656 170.182 6.656H166.182V18.944Z" fill="#FFCB26"/>
<path d="M40.9105 6.368C42.2545 6.368 43.4705 6.64533 44.5585 7.2C45.6465 7.73333 46.4998 8.56533 47.1185 9.696C47.7585 10.8267 48.0785 12.288 48.0785 14.08V24H41.9985V15.072C41.9985 13.8347 41.7425 12.9387 41.2305 12.384C40.7398 11.808 40.0465 11.52 39.1505 11.52C38.5105 11.52 37.9238 11.6693 37.3905 11.968C36.8572 12.2453 36.4412 12.6827 36.1425 13.28C35.8438 13.8773 35.6945 14.656 35.6945 15.616V24H29.6145V6.656H35.4065V11.584L34.2865 10.144C34.9478 8.88533 35.8545 7.94667 37.0065 7.328C38.1585 6.688 39.4598 6.368 40.9105 6.368ZM62.8025 24.288C60.7545 24.288 58.9625 23.904 57.4265 23.136C55.9118 22.3467 54.7278 21.28 53.8745 19.936C53.0425 18.5707 52.6265 17.024 52.6265 15.296C52.6265 13.568 53.0318 12.032 53.8425 10.688C54.6745 9.32267 55.8158 8.26667 57.2665 7.52C58.7172 6.752 60.3492 6.368 62.1625 6.368C63.8692 6.368 65.4265 6.72 66.8345 7.424C68.2425 8.10667 69.3625 9.12 70.1945 10.464C71.0265 11.808 71.4425 13.44 71.4425 15.36C71.4425 15.5733 71.4318 15.8187 71.4105 16.096C71.3892 16.3733 71.3678 16.6293 71.3465 16.864H57.6185V13.664H68.1145L65.8105 14.56C65.8318 13.7707 65.6825 13.088 65.3625 12.512C65.0638 11.936 64.6372 11.488 64.0825 11.168C63.5492 10.848 62.9198 10.688 62.1945 10.688C61.4692 10.688 60.8292 10.848 60.2745 11.168C59.7412 11.488 59.3252 11.9467 59.0265 12.544C58.7278 13.12 58.5785 13.8027 58.5785 14.592V15.52C58.5785 16.3733 58.7492 17.1093 59.0905 17.728C59.4532 18.3467 59.9652 18.8267 60.6265 19.168C61.2878 19.488 62.0772 19.648 62.9945 19.648C63.8478 19.648 64.5732 19.5307 65.1705 19.296C65.7892 19.04 66.3972 18.656 66.9945 18.144L70.1945 21.472C69.3625 22.3893 68.3385 23.0933 67.1225 23.584C65.9065 24.0533 64.4665 24.288 62.8025 24.288ZM102.04 24V0.255999H108.12V24H102.04ZM120.967 24.288C119.559 24.288 118.289 24.0107 117.159 23.456C116.049 22.9013 115.175 22.0373 114.535 20.864C113.916 19.6693 113.607 18.1653 113.607 16.352V6.656H119.687V15.36C119.687 16.704 119.932 17.664 120.423 18.24C120.935 18.816 121.649 19.104 122.567 19.104C123.164 19.104 123.708 18.9653 124.199 18.688C124.689 18.4107 125.084 17.9733 125.383 17.376C125.681 16.7573 125.831 15.968 125.831 15.008V6.656H131.911V24H126.119V19.104L127.239 20.48C126.641 21.76 125.777 22.72 124.647 23.36C123.516 23.9787 122.289 24.288 120.967 24.288ZM146.515 24.288C144.467 24.288 142.675 23.904 141.139 23.136C139.624 22.3467 138.44 21.28 137.587 19.936C136.755 18.5707 136.339 17.024 136.339 15.296C136.339 13.568 136.744 12.032 137.555 10.688C138.387 9.32267 139.528 8.26667 140.979 7.52C142.43 6.752 144.062 6.368 145.875 6.368C147.582 6.368 149.139 6.72 150.547 7.424C151.955 8.10667 153.075 9.12 153.907 10.464C154.739 11.808 155.155 13.44 155.155 15.36C155.155 15.5733 155.144 15.8187 155.123 16.096C155.102 16.3733 155.08 16.6293 155.059 16.864H141.331V13.664H151.827L149.523 14.56C149.544 13.7707 149.395 13.088 149.075 12.512C148.776 11.936 148.35 11.488 147.795 11.168C147.262 10.848 146.632 10.688 145.907 10.688C145.182 10.688 144.542 10.848 143.987 11.168C143.454 11.488 143.038 11.9467 142.739 12.544C142.44 13.12 142.291 13.8027 142.291 14.592V15.52C142.291 16.3733 142.462 17.1093 142.803 17.728C143.166 18.3467 143.678 18.8267 144.339 19.168C145 19.488 145.79 19.648 146.707 19.648C147.56 19.648 148.286 19.5307 148.883 19.296C149.502 19.04 150.11 18.656 150.707 18.144L153.907 21.472C153.075 22.3893 152.051 23.0933 150.835 23.584C149.619 24.0533 148.179 24.288 146.515 24.288ZM196.3 24.288C194.401 24.288 192.716 23.904 191.244 23.136C189.772 22.368 188.609 21.312 187.756 19.968C186.924 18.6027 186.508 17.0453 186.508 15.296C186.508 13.5467 186.924 12 187.756 10.656C188.609 9.312 189.772 8.26667 191.244 7.52C192.716 6.752 194.401 6.368 196.3 6.368C198.198 6.368 199.884 6.752 201.356 7.52C202.849 8.26667 204.012 9.312 204.844 10.656C205.676 12 206.092 13.5467 206.092 15.296C206.092 17.0453 205.676 18.6027 204.844 19.968C204.012 21.312 202.849 22.368 201.356 23.136C199.884 23.904 198.198 24.288 196.3 24.288ZM196.3 19.456C197.004 19.456 197.622 19.296 198.156 18.976C198.71 18.656 199.148 18.1867 199.468 17.568C199.788 16.928 199.948 16.1707 199.948 15.296C199.948 14.4213 199.788 13.6853 199.468 13.088C199.148 12.4693 198.71 12 198.156 11.68C197.622 11.36 197.004 11.2 196.3 11.2C195.617 11.2 194.998 11.36 194.444 11.68C193.91 12 193.473 12.4693 193.132 13.088C192.812 13.6853 192.652 14.4213 192.652 15.296C192.652 16.1707 192.812 16.928 193.132 17.568C193.473 18.1867 193.91 18.656 194.444 18.976C194.998 19.296 195.617 19.456 196.3 19.456ZM218.988 30.496C217.324 30.496 215.735 30.304 214.22 29.92C212.727 29.536 211.447 28.9707 210.38 28.224L212.588 23.968C213.314 24.544 214.21 24.992 215.276 25.312C216.364 25.6533 217.42 25.824 218.444 25.824C220.087 25.824 221.271 25.4613 221.996 24.736C222.722 24.032 223.084 22.9973 223.084 21.632V19.584L223.404 14.72L223.372 9.824V6.656H229.164V20.832C229.164 24.1173 228.279 26.5493 226.508 28.128C224.738 29.7067 222.231 30.496 218.988 30.496ZM217.932 23.104C216.396 23.104 214.978 22.7627 213.676 22.08C212.396 21.376 211.362 20.4053 210.572 19.168C209.804 17.9093 209.42 16.4267 209.42 14.72C209.42 13.0133 209.804 11.5413 210.572 10.304C211.362 9.04533 212.396 8.07467 213.676 7.392C214.978 6.70933 216.396 6.368 217.932 6.368C219.404 6.368 220.663 6.66667 221.708 7.264C222.754 7.84 223.543 8.74667 224.076 9.984C224.631 11.2213 224.908 12.8 224.908 14.72C224.908 16.64 224.631 18.2187 224.076 19.456C223.543 20.6933 222.754 21.6107 221.708 22.208C220.663 22.8053 219.404 23.104 217.932 23.104ZM219.372 18.272C220.098 18.272 220.738 18.1227 221.292 17.824C221.868 17.5253 222.316 17.1093 222.636 16.576C222.978 16.0427 223.148 15.424 223.148 14.72C223.148 14.016 222.978 13.3973 222.636 12.864C222.316 12.3307 221.868 11.9253 221.292 11.648C220.738 11.3493 220.098 11.2 219.372 11.2C218.647 11.2 217.996 11.3493 217.42 11.648C216.844 11.9253 216.386 12.3307 216.044 12.864C215.724 13.3973 215.564 14.016 215.564 14.72C215.564 15.424 215.724 16.0427 216.044 16.576C216.386 17.1093 216.844 17.5253 217.42 17.824C217.996 18.1227 218.647 18.272 219.372 18.272Z" fill="white"/>
</svg>
